# This file uses centimeters as units for non-parametric coordinates.

mtllib cube.mtl
g default

v  48.656645  48.864150  4.766477
v  58.189599  48.864150  4.766477
v  48.656645  58.397104  4.766477
v  58.189599  58.397104  4.766477
v  48.656645  58.397104  -4.766477
v  58.189599  58.397104  -4.766477
v  48.656645  48.864150  -4.766477
v  58.189599  48.864150  -4.766477

vn  0.000000  0.000000  1.000000
vn  0.000000  0.000000  1.000000
vn  0.000000  0.000000  1.000000
vn  0.000000  0.000000  1.000000
vn  0.000000  1.000000  0.000000
vn  0.000000  1.000000  0.000000
vn  0.000000  1.000000  0.000000
vn  0.000000  1.000000  0.000000
vn  0.000000  0.000000  -1.000000
vn  0.000000  0.000000  -1.000000
vn  0.000000  0.000000  -1.000000
vn  0.000000  0.000000  -1.000000
vn  0.000000  -1.000000  0.000000
vn  0.000000  -1.000000  0.000000
vn  0.000000  -1.000000  0.000000
vn  0.000000  -1.000000  0.000000
vn  1.000000  0.000000  0.000000
vn  1.000000  0.000000  0.000000
vn  1.000000  0.000000  0.000000
vn  1.000000  0.000000  0.000000
vn  -1.000000  0.000000  0.000000
vn  -1.000000  0.000000  0.000000
vn  -1.000000  0.000000  0.000000
vn  -1.000000  0.000000  0.000000
s  off
g  pCube1
usemtl  initialShadingGroup

f  1//1  2//2  4//3  3//4
f  3//5  4//6  6//7  5//8
f  5//9  6//10  8//11  7//12
f  7//13  8//14  2//15  1//16
f  2//17  8//18  6//19  4//20
f  7//21  1//22  3//23  5//24
